<?xml version="1.0" standalone="no"?>
<!DOCTYPE svg PUBLIC "-//W3C//DTD SVG 20010904//EN"
 "http://www.w3.org/TR/2001/REC-SVG-20010904/DTD/svg10.dtd">
<svg version="1.0" xmlns="http://www.w3.org/2000/svg"
 width="1024.000000pt" height="1024.000000pt" viewBox="0 0 1024.000000 1024.000000"
 preserveAspectRatio="xMidYMid meet">
<metadata>
Created by potrace 1.11, written by Peter Selinger 2001-2013
</metadata>
<g transform="translate(0.000000,1024.000000) scale(0.100000,-0.100000)"
fill="#000000" stroke="none">
<path d="M0 5120 l0 -5120 5120 0 5120 0 0 5120 0 5120 -5120 0 -5120 0 0
-5120z m8319 2941 c151 -77 158 -287 13 -368 -43 -24 -51 -35 -98 -137 -135
-290 -188 -601 -153 -891 13 -106 58 -285 92 -370 25 -58 26 -60 70 -67 96
-13 164 -69 187 -154 27 -94 -20 -196 -110 -241 -43 -22 -53 -23 -356 -23
l-312 0 -32 -87 c-142 -392 -147 -804 -13 -1139 22 -57 27 -62 61 -68 20 -3
165 -6 322 -6 157 0 300 -4 319 -10 148 -42 205 -218 109 -334 -34 -42 -97
-75 -140 -76 -24 0 -29 -7 -56 -82 -49 -137 -61 -179 -82 -283 -56 -275 -45
-541 35 -795 42 -133 44 -135 117 -150 54 -10 70 -19 109 -58 73 -73 86 -159
39 -251 -21 -42 -79 -97 -117 -112 -15 -5 -1083 -9 -2737 -9 -2648 0 -2715 0
-2788 19 -116 30 -193 74 -273 155 -114 116 -179 275 -211 520 -21 157 -14
727 9 847 15 76 33 147 44 175 4 12 -22 14 -170 14 -206 0 -288 14 -394 65
-178 88 -284 247 -343 520 -20 88 -23 139 -27 430 -4 265 -2 354 11 451 41
316 153 517 341 616 130 68 150 70 543 75 325 4 353 6 346 21 -77 177 -104
334 -111 647 -13 544 52 827 228 1006 82 82 182 135 304 159 22 4 1198 8 2613
9 2528 1 2573 1 2611 -18z"/>
<path d="M3129 7637 c-95 -50 -126 -172 -135 -527 -10 -370 16 -591 80 -675
34 -45 70 -63 140 -71 l56 -7 0 439 c0 254 4 454 10 474 13 49 66 109 114 131
39 17 80 19 686 19 607 0 647 -2 685 -19 22 -10 52 -31 67 -47 59 -63 58 -57
58 -614 l0 -510 1426 0 c1354 0 1426 1 1419 18 -22 56 -67 261 -81 365 -40
301 13 698 131 988 l24 59 -2318 0 -2318 0 -44 -23z"/>
<path d="M3700 6175 l0 -815 140 101 c151 108 191 129 245 129 54 0 96 -22
241 -125 73 -52 135 -95 138 -95 3 0 6 365 6 810 l0 810 -385 0 -385 0 0 -815z"/>
<path d="M2027 5808 c-89 -24 -137 -119 -158 -311 -16 -145 -6 -682 14 -768
26 -111 67 -175 130 -198 20 -8 800 -11 2591 -11 l2563 0 -24 83 c-99 340 -91
780 21 1131 l24 76 -1149 0 -1149 0 0 -457 c0 -425 -2 -461 -19 -498 -22 -47
-74 -99 -114 -114 -41 -16 -123 -13 -158 4 -16 9 -140 94 -276 190 l-246 174
-26 -18 c-14 -10 -129 -92 -255 -181 -127 -89 -241 -166 -254 -171 -64 -24
-152 -1 -208 55 -25 24 -46 58 -53 81 -7 27 -11 192 -11 493 l0 452 -602 -1
c-373 -1 -618 -5 -641 -11z"/>
<path d="M5300 4080 c-2316 -5 -2416 -6 -2445 -23 -63 -38 -96 -121 -115 -287
-17 -143 -8 -682 13 -771 26 -111 67 -175 130 -198 35 -14 4877 -16 4877 -2 0
5 -7 28 -15 52 -66 185 -93 537 -60 789 9 74 33 196 52 270 19 74 37 145 40
158 5 20 2 22 -28 20 -19 -2 -1121 -5 -2449 -8z"/>
</g>
</svg>
